<svg xmlns="http://www.w3.org/2000/svg" width="760" height="298" viewBox="0 0 760 298"><rect width="760" height="298" fill="#0d1117" rx="8"/><rect x="16" y="16" width="728" height="24" rx="4" fill="#161b22"/><rect x="16.00" y="16" width="673.92" height="24" fill="#3572A5"/><rect x="689.92" y="16" width="17.74" height="24" fill="#f1e05a"/><rect x="707.66" y="16" width="7.29" height="24" fill="#fedf5b"/><rect x="714.95" y="16" width="6.16" height="24" fill="#555555"/><rect x="721.11" y="16" width="5.86" height="24" fill="#c6538c"/><rect x="726.97" y="16" width="4.97" height="24" fill="#3178c6"/><rect x="731.95" y="16" width="3.50" height="24" fill="#000080"/><rect x="735.45" y="16" width="3.09" height="24" fill="#663399"/><rect x="738.53" y="16" width="5.47" height="24" fill="#8a8a8a"/><circle cx="22" cy="59" r="6" fill="#3572A5"/><text x="36" y="64" font-family="Segoe UI, sans-serif" font-size="13" fill="#c9d1d9">Python - 92.6%</text><circle cx="22" cy="85" r="6" fill="#f1e05a"/><text x="36" y="90" font-family="Segoe UI, sans-serif" font-size="13" fill="#c9d1d9">JavaScript - 2.4%</text><circle cx="22" cy="111" r="6" fill="#fedf5b"/><text x="36" y="116" font-family="Segoe UI, sans-serif" font-size="13" fill="#c9d1d9">Cython - 1.0%</text><circle cx="22" cy="137" r="6" fill="#555555"/><text x="36" y="142" font-family="Segoe UI, sans-serif" font-size="13" fill="#c9d1d9">C - 0.8%</text><circle cx="22" cy="163" r="6" fill="#c6538c"/><text x="36" y="168" font-family="Segoe UI, sans-serif" font-size="13" fill="#c9d1d9">SCSS - 0.8%</text><circle cx="22" cy="189" r="6" fill="#3178c6"/><text x="36" y="194" font-family="Segoe UI, sans-serif" font-size="13" fill="#c9d1d9">TypeScript - 0.7%</text><circle cx="22" cy="215" r="6" fill="#000080"/><text x="36" y="220" font-family="Segoe UI, sans-serif" font-size="13" fill="#c9d1d9">Lua - 0.5%</text><circle cx="22" cy="241" r="6" fill="#663399"/><text x="36" y="246" font-family="Segoe UI, sans-serif" font-size="13" fill="#c9d1d9">CSS - 0.4%</text><circle cx="22" cy="267" r="6" fill="#8a8a8a"/><text x="36" y="272" font-family="Segoe UI, sans-serif" font-size="13" fill="#c9d1d9">Other - 0.8%</text></svg>